<?xml version="1.0" encoding="UTF-8" standalone="no"?>
<!-- Created with Inkscape (http://www.inkscape.org/) -->

<svg
   xmlns:dc="http://purl.org/dc/elements/1.1/"
   xmlns:cc="http://creativecommons.org/ns#"
   xmlns:rdf="http://www.w3.org/1999/02/22-rdf-syntax-ns#"
   xmlns:svg="http://www.w3.org/2000/svg"
   xmlns="http://www.w3.org/2000/svg"
   xmlns:xlink="http://www.w3.org/1999/xlink"
   xmlns:sodipodi="http://sodipodi.sourceforge.net/DTD/sodipodi-0.dtd"
   xmlns:inkscape="http://www.inkscape.org/namespaces/inkscape"
   width="179.73851mm"
   height="183.27573mm"
   viewBox="0 0 179.73851 183.27573"
   version="1.1"
   id="svg1369"
   inkscape:version="0.92.4 (5da689c313, 2019-01-14)"
   sodipodi:docname="logo_outline.svg">
  <defs
     id="defs1363">
    <linearGradient
       inkscape:collect="always"
       id="linearGradient1240">
      <stop
         style="stop-color:#bfbfbf;stop-opacity:1"
         offset="0"
         id="stop1236" />
      <stop
         style="stop-color:#1a427f;stop-opacity:1"
         offset="1"
         id="stop1238" />
    </linearGradient>
    <radialGradient
       inkscape:collect="always"
       xlink:href="#linearGradient1240"
       id="radialGradient1958"
       gradientUnits="userSpaceOnUse"
       gradientTransform="matrix(-1.4542417e-7,-0.38041529,0.37922401,-1.4496877e-7,-1677.0077,1187.1225)"
       cx="2735.0891"
       cy="3377.3293"
       fx="2735.0891"
       fy="3377.3293"
       r="268.70059" />
  </defs>
  <sodipodi:namedview
     id="base"
     pagecolor="#ffffff"
     bordercolor="#666666"
     borderopacity="1.0"
     inkscape:pageopacity="0.0"
     inkscape:pageshadow="2"
     inkscape:zoom="0.49497475"
     inkscape:cx="-15.735483"
     inkscape:cy="150.00734"
     inkscape:document-units="mm"
     inkscape:current-layer="layer1"
     showgrid="false"
     fit-margin-top="0"
     fit-margin-left="0"
     fit-margin-right="0"
     fit-margin-bottom="0"
     inkscape:window-width="1920"
     inkscape:window-height="975"
     inkscape:window-x="0"
     inkscape:window-y="27"
     inkscape:window-maximized="1" />
  <metadata
     id="metadata1366">
    <rdf:RDF>
      <cc:Work
         rdf:about="">
        <dc:format>image/svg+xml</dc:format>
        <dc:type
           rdf:resource="http://purl.org/dc/dcmitype/StillImage" />
        <dc:title></dc:title>
      </cc:Work>
    </rdf:RDF>
  </metadata>
  <g
     inkscape:label="Layer 1"
     inkscape:groupmode="layer"
     id="layer1"
     transform="translate(-17.154087,-54.114892)">
    <path
       inkscape:connector-curvature="0"
       id="path1208"
       d="m 156.63583,95.736097 c -5.3218,0.786743 -8.26454,6.543333 -7.80587,11.542993 -0.15017,7.96132 1.00727,16.85346 -4.35586,23.53018 -12.7044,19.06328 -28.82481,35.6577 -45.617561,51.16945 -4.530308,4.16259 -10.365119,8.22321 -16.850612,7.00917 -5.26533,-0.38994 -11.136814,-2.62717 -16.146778,-0.049 -4.487515,4.03518 -3.902251,11.3165 -1.190646,16.19403 2.645823,4.80378 8.767928,7.83132 14.04799,5.57827 4.644665,-1.4133 9.027804,-3.58705 13.152305,-6.12977 -0.968273,3.55792 -3.311742,6.54474 -6.651899,8.15133 -2.495244,1.25747 -4.307648,4.19017 -2.835911,6.91382 2.167942,6.14086 7.932411,10.15728 13.425811,13.09703 3.32613,1.45686 8.334321,0.31977 8.946991,-3.74739 2.38316,-8.68519 -4.06981,-17.48321 -0.37063,-26.00605 3.14163,-6.834 8.58865,-12.32075 13.22652,-18.19561 11.52309,-13.1409 23.70445,-25.75483 36.75247,-37.38837 3.68265,-2.9957 7.88506,-6.43439 13.00842,-5.69485 6.73776,0.51397 14.30204,3.0302 20.52355,-0.86348 5.04065,-3.18921 4.75669,-10.38555 2.15521,-15.06871 -2.77382,-5.39777 -9.72597,-9.21759 -15.54983,-6.23401 -2.42787,0.93014 -5.73711,3.20578 -7.58559,3.24487 4.99838,-5.49962 7.00487,-14.80984 2.10089,-20.98112 -3.2129,-3.384368 -7.64243,-5.908851 -12.37897,-6.072744 z"
       style="display:inline;opacity:1;vector-effect:none;fill:#ffffff;fill-opacity:1;stroke:none;stroke-width:4.7378335;stroke-linecap:butt;stroke-linejoin:miter;stroke-miterlimit:4;stroke-dasharray:none;stroke-dashoffset:0;stroke-opacity:1" />
    <path
       sodipodi:nodetypes="cccccccccccccccccccccccccccccccccccccccccscccccccccccsccccccccccccccccccccccccccccccccccccccccc"
       inkscape:connector-curvature="0"
       id="path1211"
       d="m 156.78996,90.672805 -0.15861,0.0086 -0.15776,0.025 c -7.58089,1.175769 -12.2954,8.481032 -11.67331,15.706625 -0.34272,3.90444 0.0419,7.67936 -0.0366,11.03179 -0.0796,3.40174 -0.57723,6.21613 -2.30757,8.62889 l -0.0429,0.0597 -0.0402,0.0624 c -10.96424,16.97729 -24.96386,31.8049 -39.54854,46.12564 -5.421081,4.70021 -10.018352,9.81049 -15.605995,11.80513 -2.632374,0.31772 -5.561343,-0.14689 -8.807074,-0.69583 -3.355397,-0.56757 -7.057616,-1.20749 -11.026467,-0.44997 l -0.16572,0.0319 -0.162118,0.0498 c -4.240728,1.31144 -6.859092,4.81154 -7.947328,8.40442 -1.088236,3.59282 -0.945773,7.39617 0.05169,10.64242 1.838588,5.98406 5.525983,10.39383 10.321684,12.36467 2.646646,1.08765 5.554084,1.32458 8.513068,0.89898 -0.368173,4.34483 1.27677,8.17185 3.617281,11.13695 2.393016,3.03156 5.456505,5.37358 8.243103,7.37172 2.520241,1.94178 5.819345,3.33844 9.346115,3.49792 3.540341,0.15999 7.644861,-1.40656 9.605391,-5.28248 l 0.0393,-0.0765 0.0346,-0.0802 c 2.3677,-5.4286 1.30944,-10.80775 0.38136,-15.46787 -0.91265,-4.58262 -1.65307,-8.53073 -0.5328,-11.98159 5.98379,-10.8575 15.23644,-19.93083 23.95866,-29.68838 9.91209,-10.14369 19.35379,-20.57481 30.40114,-28.5613 1.73468,-0.91777 3.69711,-0.87686 6.34805,-0.43121 2.61074,0.43883 5.65941,1.29614 9.07173,1.13863 3.47428,0.29336 7.29401,-0.20212 10.69411,-1.85588 3.42372,-1.66519 6.46719,-4.77895 7.26038,-9.14833 2.05015,-9.29256 -3.43663,-19.20105 -12.79142,-21.78113 l -0.0419,-0.0121 -0.0429,-0.0104 c -2.14166,-0.52459 -4.16777,-0.83817 -6.9958,-0.30111 1.0211,-4.39688 0.76855,-9.09976 -2.01977,-13.19151 -1.67064,-2.791923 -4.36991,-5.160082 -7.47602,-6.990406 -3.14342,-1.852376 -6.69588,-3.162435 -10.30744,-2.984714 z m 0.46243,6.086116 c 1.7906,-0.03793 4.41175,0.756278 6.75699,2.138284 2.4109,1.420695 4.51421,3.440605 5.38764,4.927905 l 0.0571,0.0979 0.065,0.0936 c 2.13011,4.53724 1.30313,10.70173 -1.12351,14.4611 -0.52687,0.803 -1.26842,1.7411 -2.01087,2.60067 -1.48492,1.71916 -2.93303,3.10409 -2.93303,3.10409 -1.19394,1.09276 5.07004,0.96164 11.92365,-3.74469 3.77913,-1.45591 3.7525,-1.14052 6.68128,-0.4116 6.01427,1.65876 9.84444,8.55038 8.46495,14.66423 l -0.0155,0.0703 -0.0121,0.0703 c -0.40785,2.31354 -1.76665,3.73027 -3.94868,4.79154 -2.18204,1.06129 -5.13217,1.48724 -7.61141,1.26428 l -0.2388,-0.0214 -0.23967,0.0155 c -2.13196,0.14448 -4.88713,-0.54559 -8.00699,-1.07005 -3.11992,-0.5244 -6.85686,-0.81744 -10.41082,1.15202 l -0.15586,0.0864 -0.14517,0.10431 c -11.8561,8.52469 -21.56456,19.33836 -31.43291,29.43533 l -0.0481,0.0481 -0.0455,0.0507 c -8.61854,9.64696 -18.4107,19.09138 -24.98683,31.17539 l -0.1212,0.22274 -0.0829,0.23968 c -1.89293,5.48767 -0.63216,10.75094 0.28063,15.33421 0.90578,4.54795 1.4842,8.35531 0.031,11.76594 -0.84652,1.60878 -1.93074,1.96322 -3.851631,1.87638 -1.95651,-0.0884 -4.4402,-1.09982 -5.929276,-2.25234 l -0.04465,-0.0338 -0.04621,-0.0328 c -2.661066,-1.90615 -5.308667,-4.01186 -7.069752,-6.2429 -1.731116,-2.19308 -2.605865,-4.31295 -2.349451,-6.93522 0.07927,-0.33834 0.202173,-0.55189 0.604058,-0.92657 0.443762,-0.4137 1.227232,-0.9196 2.203332,-1.50481 1.95227,-1.1705 4.93402,-2.81182 6.176115,-6.36503 l 2.348554,-6.71867 c -5.841793,3.96611 -17.226216,11.02788 -23.575539,8.55764 -2.896124,-1.1902 -5.391094,-3.87411 -6.82027,-8.52557 -0.625042,-2.03434 -0.716002,-4.87312 -0.04379,-7.09287 0.656381,-2.16713 1.770572,-3.61875 3.789212,-4.29529 2.566861,-0.44458 5.44369,-0.0543 8.677013,0.49271 3.313201,0.5604 6.979748,1.26965 10.952521,0.70295 l 0.276219,-0.0402 0.264563,-0.0883 c 7.822891,-2.63314 12.952142,-8.79858 18.021372,-13.17808 l 0.0731,-0.0633 0.0695,-0.0686 c 14.66911,-14.40201 28.98135,-29.51312 40.34421,-47.07446 2.72903,-3.80527 3.35243,-8.10225 3.44444,-12.03146 0.20805,-3.83108 -0.27641,-7.65278 0.046,-11.09776 -0.16086,-4.33534 3.0503,-9.009159 6.36226,-9.729213 z"
       style="color:#000000;font-style:normal;font-variant:normal;font-weight:normal;font-stretch:normal;font-size:medium;line-height:normal;font-family:sans-serif;font-variant-ligatures:normal;font-variant-position:normal;font-variant-caps:normal;font-variant-numeric:normal;font-variant-alternates:normal;font-feature-settings:normal;text-indent:0;text-align:start;text-decoration:none;text-decoration-line:none;text-decoration-style:solid;text-decoration-color:#000000;letter-spacing:normal;word-spacing:normal;text-transform:none;writing-mode:lr-tb;direction:ltr;text-orientation:mixed;dominant-baseline:auto;baseline-shift:baseline;text-anchor:start;white-space:normal;shape-padding:0;clip-rule:nonzero;display:inline;overflow:visible;visibility:visible;opacity:1;isolation:auto;mix-blend-mode:normal;color-interpolation:sRGB;color-interpolation-filters:linearRGB;solid-color:#000000;solid-opacity:1;vector-effect:none;fill:#000000;fill-opacity:1;fill-rule:nonzero;stroke:none;stroke-width:6.08225012;stroke-linecap:butt;stroke-linejoin:miter;stroke-miterlimit:4;stroke-dasharray:none;stroke-dashoffset:0;stroke-opacity:1;color-rendering:auto;image-rendering:auto;shape-rendering:auto;text-rendering:auto;enable-background:accumulate" />
    <g
       id="g1221"
       transform="matrix(0.37741041,0,0,0.39402848,-60.644393,-112.92463)"
       style="display:inline;fill:#000000">
      <path
         sodipodi:nodetypes="ccccccccccc"
         inkscape:connector-curvature="0"
         id="path1213"
         d="m 328.58575,528.66433 c -51.54728,5.33657 -39.4933,53.30851 -57.03509,75.58714 -13.65375,15.39287 -28.07234,19.58136 -41.80399,34.83927 -7.45145,9.52648 -4.23139,21.59986 0.91574,31.34884 5.73858,12.13633 16.1724,25.15283 33.21743,26.84045 21.46393,1.55027 32.81842,-8.71529 51.85696,-15.08439 12.46801,-4.69375 26.96166,-6.0988 39.93748,-1.95905 20.15865,5.37438 31.46372,17.19411 53.73362,15.16293 16.16793,-1.87727 26.1591,-13.92217 32.93551,-24.95965 30.82115,-42.83932 -29.49731,-52.46708 -42.29542,-76.42744 -13.36117,-34.30953 -21.66197,-66.42187 -71.46224,-65.3481 z"
         style="fill:#000000;stroke:none;stroke-width:4.7175293;stroke-linecap:butt;stroke-linejoin:miter;stroke-miterlimit:4;stroke-dasharray:none;stroke-opacity:1" />
      <path
         inkscape:connector-curvature="0"
         id="path1215"
         d="m 232.0401,489.05786 c -14.7526,0.91419 -22.45026,12.44599 -23.98754,21.8915 -5.52575,27.17519 1.20339,55.49448 16.36633,80.45503 3.14474,5.13864 10.87628,9.24887 18.71938,7.00933 18.04671,-3.38481 27.08015,-17.33374 29.71225,-29.61192 5.00244,-20.31824 1.85234,-42.00368 -9.23199,-60.93301 -5.58655,-9.09155 -16.13596,-19.65019 -31.57843,-18.81093 z"
         style="fill:#000000;stroke:none;stroke-width:5.97305489;stroke-linecap:butt;stroke-linejoin:miter;stroke-miterlimit:4;stroke-dasharray:none;stroke-opacity:1" />
      <path
         inkscape:connector-curvature="0"
         id="path1217"
         d="m 329.66238,423.96754 c -17.53544,0.55335 -27.82,13.05601 -30.84511,23.55339 -6.44797,19.9808 -3.91886,42.91237 15.19745,59.20653 7.90289,5.67735 21.37867,10.04051 32.44024,6.18699 11.3227,-6.82423 11.77518,-18.26149 14.32923,-27.68858 3.11231,-17.8798 3.06232,-37.26276 -10.20046,-53.28346 -4.59456,-4.59837 -12.31664,-8.45174 -20.92135,-7.97487 z"
         style="fill:#000000;stroke:none;stroke-width:5.71384335;stroke-linecap:butt;stroke-linejoin:miter;stroke-miterlimit:4;stroke-dasharray:none;stroke-opacity:1" />
      <path
         inkscape:connector-curvature="0"
         id="path1219"
         d="m 428.4343,483.75134 c -16.1319,0.51822 -25.67736,14.49121 -28.48609,26.53899 -6.96058,25.45695 -3.25222,53.87543 13.83782,75.88372 7.71823,8.65302 21.55858,15.98173 34.60956,12.01239 9.89376,-5.86843 10.27393,-17.41403 12.72801,-26.52891 4.18929,-24.44025 3.23113,-50.51589 -8.4356,-73.3796 -4.63535,-7.75138 -13.28635,-15.14159 -24.2537,-14.52659 z"
         style="fill:#000000;stroke:none;stroke-width:5.52201176;stroke-linecap:butt;stroke-linejoin:miter;stroke-miterlimit:4;stroke-dasharray:none;stroke-opacity:1" />
    </g>
    <circle
       r="96.537758"
       cy="141.2738"
       cx="-402.16666"
       id="circle1942"
       style="display:inline;opacity:1;vector-effect:none;fill:url(#radialGradient1958);fill-opacity:1;stroke:none;stroke-width:0.39687499;stroke-linecap:butt;stroke-linejoin:miter;stroke-miterlimit:4;stroke-dasharray:none;stroke-dashoffset:0;stroke-opacity:1" />
    <path
       style="display:inline;opacity:1;vector-effect:none;fill:#ffffff;fill-opacity:1;stroke:none;stroke-width:2.74799991;stroke-linecap:butt;stroke-linejoin:miter;stroke-miterlimit:4;stroke-dasharray:none;stroke-dashoffset:0;stroke-opacity:1"
       d="m -366.85541,114.91747 c -3.08671,0.45632 -4.79353,3.79521 -4.5275,6.69507 -0.0871,4.61766 0.58423,9.77521 -2.52645,13.64779 -7.3687,11.05693 -16.71873,20.68189 -26.45873,29.67889 -2.62763,2.41435 -6.01189,4.76956 -9.77355,4.0654 -3.05396,-0.22617 -6.45949,-1.52379 -9.36533,-0.0284 -2.60281,2.34045 -2.26335,6.5637 -0.69059,9.39273 1.53461,2.78625 5.08551,4.54226 8.14801,3.23546 2.69396,-0.81973 5.23623,-2.08053 7.62849,-3.55534 -0.56161,2.06364 -1.92085,3.79603 -3.85818,4.72787 -1.44727,0.72935 -2.49849,2.43035 -1.64486,4.0101 1.25743,3.56177 4.60089,5.89134 7.78713,7.59643 1.92919,0.845 4.834,0.18547 5.18936,-2.17353 1.38226,-5.03751 -2.36054,-10.14047 -0.21497,-15.08382 1.82218,-3.9638 4.98152,-7.14618 7.67154,-10.55367 6.68353,-7.62188 13.74886,-14.93811 21.31687,-21.6857 2.13598,-1.73754 4.57343,-3.73202 7.54504,-3.30308 3.90798,0.29811 8.29535,1.75755 11.9039,-0.50083 2.92364,-1.84978 2.75894,-6.02374 1.25005,-8.74003 -1.60885,-3.13077 -5.64118,-5.34631 -9.01909,-3.6158 -1.40819,0.53949 -3.32759,1.85939 -4.39973,1.88206 2.89912,-3.18984 4.06291,-8.58988 1.21854,-12.1693 -1.86352,-1.96297 -4.4327,-3.4272 -7.17995,-3.52226 z"
       id="path1944"
       inkscape:connector-curvature="0" />
    <path
       style="color:#000000;font-style:normal;font-variant:normal;font-weight:normal;font-stretch:normal;font-size:medium;line-height:normal;font-family:sans-serif;font-variant-ligatures:normal;font-variant-position:normal;font-variant-caps:normal;font-variant-numeric:normal;font-variant-alternates:normal;font-feature-settings:normal;text-indent:0;text-align:start;text-decoration:none;text-decoration-line:none;text-decoration-style:solid;text-decoration-color:#000000;letter-spacing:normal;word-spacing:normal;text-transform:none;writing-mode:lr-tb;direction:ltr;text-orientation:mixed;dominant-baseline:auto;baseline-shift:baseline;text-anchor:start;white-space:normal;shape-padding:0;clip-rule:nonzero;display:inline;overflow:visible;visibility:visible;opacity:1;isolation:auto;mix-blend-mode:normal;color-interpolation:sRGB;color-interpolation-filters:linearRGB;solid-color:#000000;solid-opacity:1;vector-effect:none;fill:#000000;fill-opacity:1;fill-rule:nonzero;stroke:none;stroke-width:3.52777767;stroke-linecap:butt;stroke-linejoin:miter;stroke-miterlimit:4;stroke-dasharray:none;stroke-dashoffset:0;stroke-opacity:1;color-rendering:auto;image-rendering:auto;shape-rendering:auto;text-rendering:auto;enable-background:accumulate"
       d="m -366.76601,111.9807 -0.092,0.005 -0.0915,0.0145 c -4.39701,0.68196 -7.13148,4.9191 -6.77066,9.11003 -0.19878,2.26462 0.0243,4.45412 -0.0212,6.39857 -0.0462,1.97305 -0.3348,3.60543 -1.33842,5.00486 l -0.0249,0.0346 -0.0233,0.0362 c -6.35939,9.84703 -14.47934,18.44722 -22.93863,26.75342 -3.14429,2.72618 -5.81076,5.6902 -9.05166,6.84712 -1.52681,0.18428 -3.22565,-0.0852 -5.10821,-0.40359 -1.94617,-0.3292 -4.0935,-0.70036 -6.39548,-0.26099 l -0.0961,0.0185 -0.094,0.0289 c -2.45967,0.76065 -3.97836,2.79075 -4.60955,4.87466 -0.63119,2.08388 -0.54856,4.28987 0.03,6.17273 1.06641,3.47083 3.20514,6.02855 5.98671,7.17166 1.53508,0.63085 3.22143,0.76827 4.93768,0.52142 -0.21355,2.52005 0.74054,4.73977 2.09806,6.45956 1.38798,1.75834 3.16484,3.11674 4.7811,4.27569 1.46177,1.12625 3.37529,1.93633 5.42086,2.02883 2.05344,0.0928 4.43411,-0.81582 5.57124,-3.0639 l 0.0228,-0.0444 0.0201,-0.0465 c 1.37329,-3.14865 0.75949,-6.26862 0.22119,-8.97155 -0.52935,-2.65797 -0.9588,-4.94792 -0.30903,-6.94946 3.47067,-6.29748 8.83732,-11.56012 13.89631,-17.21962 5.74913,-5.88346 11.22543,-11.93363 17.63302,-16.56589 1.00614,-0.53232 2.14437,-0.50859 3.68195,-0.25011 1.51426,0.25453 3.28252,0.75178 5.26171,0.66042 2.01512,0.17015 4.23061,-0.11723 6.20271,-1.07643 1.9858,-0.96583 3.75105,-2.77185 4.21111,-5.30614 1.18911,-5.3898 -1.99329,-11.13684 -7.41918,-12.63332 l -0.0243,-0.007 -0.0249,-0.006 c -1.24219,-0.30427 -2.41736,-0.48615 -4.05765,-0.17465 0.59225,-2.55024 0.44577,-5.27797 -1.17149,-7.65123 -0.96899,-1.61935 -2.5346,-2.99291 -4.33618,-4.05452 -1.82322,-1.0744 -3.88369,-1.83425 -5.97844,-1.73117 z m 0.26821,3.53002 c 1.03857,-0.022 2.55887,0.43865 3.91914,1.24023 1.39835,0.82402 2.61829,1.99559 3.12489,2.85824 l 0.0331,0.0568 0.0377,0.0543 c 1.23549,2.63165 0.75583,6.20713 -0.65165,8.38761 -0.30559,0.46575 -0.7357,1.00986 -1.16633,1.50842 -0.86127,0.99713 -1.70119,1.80041 -1.70119,1.80041 -0.6925,0.63381 2.94068,0.55776 6.91586,-2.17197 2.19194,-0.84444 2.17649,-0.66151 3.87522,-0.23873 3.48835,0.9621 5.70989,4.95932 4.90977,8.50543 l -0.009,0.0408 -0.007,0.0408 c -0.23656,1.34188 -1.02468,2.1636 -2.29028,2.77915 -1.26561,0.61556 -2.97672,0.86262 -4.41471,0.7333 l -0.13851,-0.0124 -0.13901,0.009 c -1.23656,0.0838 -2.83459,-0.31645 -4.64415,-0.62064 -1.80959,-0.30416 -3.97706,-0.47413 -6.0384,0.66818 l -0.0904,0.0501 -0.0842,0.0605 c -6.87668,4.94442 -12.5077,11.21648 -18.23146,17.07284 l -0.0279,0.0279 -0.0264,0.0294 c -4.99886,5.59535 -10.67843,11.07323 -14.49266,18.0821 l -0.0703,0.12919 -0.0481,0.13902 c -1.09792,3.18291 -0.36666,6.23567 0.16277,8.89402 0.52536,2.63787 0.86085,4.84618 0.018,6.82439 -0.49099,0.93311 -1.11985,1.13869 -2.23399,1.08832 -1.1348,-0.0513 -2.57537,-0.63791 -3.43905,-1.30638 l -0.0259,-0.0196 -0.0268,-0.019 c -1.54345,-1.10559 -3.07909,-2.32693 -4.10054,-3.62096 -1.00407,-1.27201 -1.51143,-2.50156 -1.36271,-4.02251 0.046,-0.19624 0.11726,-0.3201 0.35036,-0.53742 0.25739,-0.23995 0.71181,-0.53338 1.27796,-0.87281 1.13234,-0.6789 2.86179,-1.63089 3.58222,-3.69179 l 1.36219,-3.89691 c -3.38831,2.30039 -9.99141,6.3963 -13.67409,4.96353 -1.67979,-0.69033 -3.1269,-2.24703 -3.95584,-4.94493 -0.36253,-1.17994 -0.41529,-2.82647 -0.0254,-4.11395 0.38071,-1.25696 1.02695,-2.09892 2.19779,-2.49132 1.48881,-0.25786 3.1574,-0.0315 5.03277,0.28578 1.92169,0.32504 4.04833,0.73641 6.35259,0.40772 l 0.16021,-0.0233 0.15345,-0.0512 c 4.53737,-1.52725 7.5124,-5.10328 10.45261,-7.64344 l 0.0424,-0.0367 0.0403,-0.0398 c 8.50826,-8.35334 16.80953,-17.11796 23.40012,-27.30375 1.58287,-2.2071 1.94445,-4.6994 1.99782,-6.97839 0.12067,-2.22207 -0.16032,-4.4387 0.0267,-6.43683 -0.0933,-2.51455 1.76921,-5.22542 3.69019,-5.64306 z"
       id="path1946"
       inkscape:connector-curvature="0"
       sodipodi:nodetypes="cccccccccccccccccccccccccccccccccccccccccscccccccccccsccccccccccccccccccccccccccccccccccccccccc" />
    <g
       style="display:inline;fill:#000000"
       transform="matrix(0.21890254,0,0,0.22854122,-492.88053,-6.1082454)"
       id="g1956">
      <path
         style="fill:#000000;stroke:none;stroke-width:4.7175293;stroke-linecap:butt;stroke-linejoin:miter;stroke-miterlimit:4;stroke-dasharray:none;stroke-opacity:1"
         d="m 328.58575,528.66433 c -51.54728,5.33657 -39.4933,53.30851 -57.03509,75.58714 -13.65375,15.39287 -28.07234,19.58136 -41.80399,34.83927 -7.45145,9.52648 -4.23139,21.59986 0.91574,31.34884 5.73858,12.13633 16.1724,25.15283 33.21743,26.84045 21.46393,1.55027 32.81842,-8.71529 51.85696,-15.08439 12.46801,-4.69375 26.96166,-6.0988 39.93748,-1.95905 20.15865,5.37438 31.46372,17.19411 53.73362,15.16293 16.16793,-1.87727 26.1591,-13.92217 32.93551,-24.95965 30.82115,-42.83932 -29.49731,-52.46708 -42.29542,-76.42744 -13.36117,-34.30953 -21.66197,-66.42187 -71.46224,-65.3481 z"
         id="path1948"
         inkscape:connector-curvature="0"
         sodipodi:nodetypes="ccccccccccc" />
      <path
         style="fill:#000000;stroke:none;stroke-width:5.97305489;stroke-linecap:butt;stroke-linejoin:miter;stroke-miterlimit:4;stroke-dasharray:none;stroke-opacity:1"
         d="m 232.0401,489.05786 c -14.7526,0.91419 -22.45026,12.44599 -23.98754,21.8915 -5.52575,27.17519 1.20339,55.49448 16.36633,80.45503 3.14474,5.13864 10.87628,9.24887 18.71938,7.00933 18.04671,-3.38481 27.08015,-17.33374 29.71225,-29.61192 5.00244,-20.31824 1.85234,-42.00368 -9.23199,-60.93301 -5.58655,-9.09155 -16.13596,-19.65019 -31.57843,-18.81093 z"
         id="path1950"
         inkscape:connector-curvature="0" />
      <path
         style="fill:#000000;stroke:none;stroke-width:5.71384335;stroke-linecap:butt;stroke-linejoin:miter;stroke-miterlimit:4;stroke-dasharray:none;stroke-opacity:1"
         d="m 329.66238,423.96754 c -17.53544,0.55335 -27.82,13.05601 -30.84511,23.55339 -6.44797,19.9808 -3.91886,42.91237 15.19745,59.20653 7.90289,5.67735 21.37867,10.04051 32.44024,6.18699 11.3227,-6.82423 11.77518,-18.26149 14.32923,-27.68858 3.11231,-17.8798 3.06232,-37.26276 -10.20046,-53.28346 -4.59456,-4.59837 -12.31664,-8.45174 -20.92135,-7.97487 z"
         id="path1952"
         inkscape:connector-curvature="0" />
      <path
         style="fill:#000000;stroke:none;stroke-width:5.52201176;stroke-linecap:butt;stroke-linejoin:miter;stroke-miterlimit:4;stroke-dasharray:none;stroke-opacity:1"
         d="m 428.4343,483.75134 c -16.1319,0.51822 -25.67736,14.49121 -28.48609,26.53899 -6.96058,25.45695 -3.25222,53.87543 13.83782,75.88372 7.71823,8.65302 21.55858,15.98173 34.60956,12.01239 9.89376,-5.86843 10.27393,-17.41403 12.72801,-26.52891 4.18929,-24.44025 3.23113,-50.51589 -8.4356,-73.3796 -4.63535,-7.75138 -13.28635,-15.14159 -24.2537,-14.52659 z"
         id="path1954"
         inkscape:connector-curvature="0" />
    </g>
  </g>
</svg>
