<?xml version="1.0" encoding="UTF-8" standalone="no"?>
<!-- Created with Inkscape (http://www.inkscape.org/) -->

<svg
   xmlns:dc="http://purl.org/dc/elements/1.1/"
   xmlns:cc="http://creativecommons.org/ns#"
   xmlns:rdf="http://www.w3.org/1999/02/22-rdf-syntax-ns#"
   xmlns:svg="http://www.w3.org/2000/svg"
   xmlns="http://www.w3.org/2000/svg"
   xmlns:sodipodi="http://sodipodi.sourceforge.net/DTD/sodipodi-0.dtd"
   xmlns:inkscape="http://www.inkscape.org/namespaces/inkscape"
   width="200mm"
   height="200mm"
   viewBox="0 0 200 200"
   version="1.1"
   id="svg919"
   inkscape:version="0.92.4 (5da689c313, 2019-01-14)"
   sodipodi:docname="sillouhette.svg">
  <defs
     id="defs913" />
  <sodipodi:namedview
     id="base"
     pagecolor="#ffffff"
     bordercolor="#666666"
     borderopacity="1.0"
     inkscape:pageopacity="0.0"
     inkscape:pageshadow="2"
     inkscape:zoom="0.7"
     inkscape:cx="535.44122"
     inkscape:cy="455.90577"
     inkscape:document-units="mm"
     inkscape:current-layer="layer1"
     showgrid="false"
     inkscape:window-width="1920"
     inkscape:window-height="975"
     inkscape:window-x="0"
     inkscape:window-y="27"
     inkscape:window-maximized="1" />
  <metadata
     id="metadata916">
    <rdf:RDF>
      <cc:Work
         rdf:about="">
        <dc:format>image/svg+xml</dc:format>
        <dc:type
           rdf:resource="http://purl.org/dc/dcmitype/StillImage" />
        <dc:title />
      </cc:Work>
    </rdf:RDF>
  </metadata>
  <g
     inkscape:label="Layer 1"
     inkscape:groupmode="layer"
     id="layer1"
     transform="translate(0,-97)">
    <path
       style="fill:#c0c0c0;fill-opacity:1;stroke:none;stroke-width:0.37786034px;stroke-linecap:butt;stroke-linejoin:miter;stroke-opacity:1"
       d="m 83.841876,119.18632 c 3.612483,3.91382 6.742255,9.40671 8.25354,12.25465 -4.985982,-7.3601 -17.440981,-5.61741 -27.716007,-2.44038 9.442386,0.26027 13.670628,4.00334 13.670628,4.00334 -9.204566,-3.34601 -19.330332,1.62443 -23.085452,8.16266 -2.2862,3.98062 -9.740208,11.50513 -9.740208,11.50513 0,0 12.585319,-7.65988 22.508734,-6.57837 -12.034361,1.68948 -12.955751,16.18094 -12.580025,15.86755 0.114576,-0.0955 2.766333,-3.11973 5.028867,-4.50266 -1.63617,5.5775 -0.04412,11.34663 -3.919194,15.78674 -5.207745,5.96717 -16.278424,-2.93607 -31.561151,-0.0897 -3.264211,0.60795 1.91689,16.03454 7.360416,22.97212 10.039421,12.79494 33.376131,14.20136 36.073889,17.39686 1.42898,1.69258 1.6788,7.62308 0.216559,10.71861 -2.46296,5.21401 -4.064559,8.75263 -5.741349,12.96934 -2.964485,7.45495 -9.165898,24.06125 2.296761,53.34058 -0.195693,2.63362 -0.477575,5.19044 -0.859463,7.42214 H 165.14866 c -4.77741,-7.87935 -12.80686,-17.99968 -31.40294,-35.9101 -9.41937,-9.07207 -16.96112,-18.69388 -20.56652,-34.72747 -0.64266,-2.85798 -1.33927,-6.91538 -0.1223,-10.53682 5.19172,3.70403 6.25245,5.6285 5.86476,6.65353 0.72593,-1.57394 5.12463,-11.53811 2.9509,-17.54605 4.91509,0.44323 2.91275,9.71664 2.91275,9.71664 0,0 9.87154,-8.5234 3.56912,-19.22236 4.12196,1.78781 4.79083,8.35802 5.07264,7.31329 0.2818,-1.04473 3.8318,-12.81608 -3.00588,-18.59739 0,0 24.95549,0.88015 31.72721,-13.71662 3.51876,-7.58485 18.09153,-22.06251 17.13653,-25.32836 -0.37899,-1.29603 -18.81024,-0.49889 -28.15359,-2.22721 -10.11999,-1.87193 -19.19744,2.66699 -24.74155,6.48974 -0.0139,-0.21408 -0.041,-0.47673 -0.0606,-0.71249 2.828,-3.4373 8.81117,-6.96209 8.81117,-6.96209 -4.64569,0.39744 -8.95142,2.57284 -9.3733,2.79045 -0.0223,-0.12008 -0.0435,-0.24021 -0.0673,-0.36241 1.34725,-5.16764 13.48998,-6.40109 13.48998,-6.40109 -0.10118,-0.40971 -15.44588,-5.56995 -20.55867,4.09199 0.59545,-2.86663 -0.14315,-14.2666 -16.04145,-21.2431 0,0 6.68337,13.47749 4.4746,16.0504 -1.70067,-8.69341 -16.004211,-16.56677 -23.222341,-18.40103 z"
       id="path5732"
       inkscape:connector-curvature="0" />
  </g>
</svg>
