<?xml version="1.0" encoding="UTF-8" standalone="no"?>
<!-- Created with Inkscape (http://www.inkscape.org/) -->

<svg
   xmlns:dc="http://purl.org/dc/elements/1.1/"
   xmlns:cc="http://creativecommons.org/ns#"
   xmlns:rdf="http://www.w3.org/1999/02/22-rdf-syntax-ns#"
   xmlns:svg="http://www.w3.org/2000/svg"
   xmlns="http://www.w3.org/2000/svg"
   xmlns:sodipodi="http://sodipodi.sourceforge.net/DTD/sodipodi-0.dtd"
   xmlns:inkscape="http://www.inkscape.org/namespaces/inkscape"
   width="86.150253mm"
   height="49.59066mm"
   viewBox="0 0 86.150253 49.59066"
   version="1.1"
   id="svg1279"
   inkscape:version="0.92.4 (5da689c313, 2019-01-14)"
   sodipodi:docname="furaffinity.svg">
  <defs
     id="defs1273" />
  <sodipodi:namedview
     id="base"
     pagecolor="#ffffff"
     bordercolor="#666666"
     borderopacity="1.0"
     inkscape:pageopacity="0.0"
     inkscape:pageshadow="2"
     inkscape:zoom="1.4"
     inkscape:cx="117.58342"
     inkscape:cy="92.443074"
     inkscape:document-units="mm"
     inkscape:current-layer="g1901"
     showgrid="false"
     fit-margin-top="0"
     fit-margin-left="0"
     fit-margin-right="0"
     fit-margin-bottom="0"
     inkscape:window-width="1920"
     inkscape:window-height="975"
     inkscape:window-x="0"
     inkscape:window-y="27"
     inkscape:window-maximized="1" />
  <metadata
     id="metadata1276">
    <rdf:RDF>
      <cc:Work
         rdf:about="">
        <dc:format>image/svg+xml</dc:format>
        <dc:type
           rdf:resource="http://purl.org/dc/dcmitype/StillImage" />
        <dc:title></dc:title>
      </cc:Work>
    </rdf:RDF>
  </metadata>
  <g
     inkscape:label="Layer 1"
     inkscape:groupmode="layer"
     id="layer1"
     transform="translate(-50.662967,-115.72252)">
    <g
       id="g1901"
       transform="matrix(3.089814,0,0,3.089814,-373.20884,-513.1808)"
       style="fill:#bfbfbf;fill-opacity:1">
      <rect
         style="opacity:1;vector-effect:none;fill:#ffffff;fill-opacity:1;stroke:none;stroke-width:0.03236441;stroke-linecap:butt;stroke-linejoin:miter;stroke-miterlimit:4;stroke-dasharray:none;stroke-dashoffset:0;stroke-opacity:1"
         id="rect5551"
         width="13.077188"
         height="12.660862"
         x="-153.93069"
         y="206.92943"
         transform="scale(-1,1)" />
      <path
         id="path1798"
         d="m 143.51045,203.8201 c -2.8703,0.51103 -5.51958,2.59182 -6.02561,5.52528 -0.60602,3.51312 -0.10961,6.59938 -0.11359,10.24191 h 2.53141 2.5314 c -0.052,-0.38537 -0.0962,-0.80697 -0.0649,-1.13589 0.25319,-1.71564 1.61099,-3.01744 3.06419,-3.66188 1.5951,-0.6984 3.49345,-0.66998 5.01683,-0.84921 0.0838,-0.0595 0.15417,-0.23529 0.16498,-0.4192 0.11637,-0.93791 -0.1253,-1.97604 -0.91952,-2.45567 -2.03819,-0.89131 -4.15692,-0.25741 -6.37449,0.003 h -0.0974 l 0.008,-0.42731 c 0.027,-1.21432 0.0811,-1.7444 0.19472,-1.88233 0.89482,-0.33303 1.95425,-0.41482 2.85594,-0.44894 1.79974,-0.0281 3.4786,-0.23911 5.09798,0.40026 1.06938,0.39099 1.86937,1.46765 2.16629,2.407 0.25014,0.91542 0.22863,1.71856 0.23529,2.26366 0.008,0.86273 0,1.57942 -0.0379,2.60443 -0.0514,1.49017 -0.046,1.70383 0.0595,2.72072 0.0207,0.33408 0.0443,0.59361 0.12711,0.88436 1.62987,-0.0801 3.8601,0.14287 5.08985,-0.18931 1.42913,-0.41686 2.59105,-1.25331 3.56993,-2.35561 0.17579,-0.20013 0.38944,-0.4787 0.5436,-0.71399 0.0568,-0.0892 0.13523,-0.20284 0.17039,-0.25422 0.22988,-0.34077 0.68423,-1.37118 0.86544,-1.95535 0.10547,-0.34888 0.13522,-0.51115 0.16497,-0.92764 0.0243,-0.37322 0.0189,-0.41108 -0.0514,-0.43542 -0.42864,-0.3001 -1.03516,-0.14818 -1.53615,-0.1217 -0.55349,0.0207 -1.10662,0.0541 -1.66056,0.0541 l 0.008,-1.18187 0.008,-1.18186 -0.1244,-0.046 c -0.10278,-0.0406 -0.26234,-0.0514 -0.91953,-0.0649 -0.43813,-0.008 -0.96821,-0.0216 -1.18187,-0.0298 l -0.38674,-0.0162 0.0189,-1.35766 0.0189,-1.35495 -0.11358,-0.11359 c -0.81987,-0.53991 -1.87969,-0.59933 -2.78563,-1.00066 0.0821,-0.82629 0.3143,-1.77869 0.31101,-2.53952 l -0.0162,-0.0649 c 0,0 -9.23777,-0.49636 -12.41362,0.0811 z"
         inkscape:connector-curvature="0"
         sodipodi:nodetypes="csccccccccccccccccccccccccccccccccccccccccc"
         style="fill:#faaf3a;fill-opacity:1;stroke:none;stroke-width:0.00270449" />
      <path
         id="path1800"
         d="m 156.40277,206.03238 c 0.0243,0.0406 0.58417,0.23799 1.46853,0.52196 0.51926,0.16768 0.9033,0.3002 1.14401,0.40297 0.24069,0.10007 0.24881,0.10548 0.27044,0.20554 0.0135,0.0595 0.0135,0.41379 0.003,0.79512 -0.0325,0.94928 -0.0297,1.34414 0.005,1.37929 0.0568,0.0568 0.46246,0.0784 1.5118,0.0811 h 1.0818 l -0.005,0.32995 c -0.005,0.1839 -0.027,0.43001 -0.0541,0.54901 -0.0622,0.30561 -0.0838,1.55779 -0.0243,1.61458 0.79392,0.16155 1.4575,0.0954 2.29882,-0.003 0.35159,-0.0352 0.35159,-0.0379 0.3597,-0.5382 0.005,-0.21906 0.0189,-0.56253 0.0352,-0.76266 0.0135,-0.20014 0.0379,-0.65179 0.0541,-1.00067 0.0784,-1.77955 0.0872,-1.76461 0.2407,-3.05607 0.0997,-0.83905 0.27174,-1.613 0.27315,-2.35021 v -0.46246 h -4.17844 -4.17574 c -0.0975,0.79331 -0.20741,2.02569 -0.3083,2.29341 z"
         inkscape:connector-curvature="0"
         sodipodi:nodetypes="cccccscccccccccsccccc"
         style="fill:#ffffff;fill-opacity:1;stroke:none;stroke-width:0.00270449" />
      <path
         id="path1802"
         d="m 149.20341,215.67659 c -1.27382,0.0784 -1.92019,0.21907 -2.43405,0.52468 -1.22539,0.74582 -1.68339,2.12481 -1.10613,3.1345 l 0.14874,0.25152 h 2.13655 c 2.12843,0 2.13655,0 2.25014,-0.0568 0.11629,-0.0595 0.14604,-0.0838 0.32183,-0.25152 0.10548,-0.10277 0.21095,-0.31102 0.28398,-0.55442 0.0514,-0.17579 0.0351,-0.64367 -0.0325,-0.94387 -0.0703,-0.31643 -0.15145,-0.97903 -0.17308,-1.43879 -0.0271,-0.52197 -0.0595,-0.63015 -0.20285,-0.68965 -0.40656,-0.0711 -0.8539,0.004 -1.19267,0.0243 z"
         inkscape:connector-curvature="0"
         sodipodi:nodetypes="ccccsccccccc"
         style="fill:#faaf3a;fill-opacity:1;stroke:none;stroke-width:0.00270449" />
    </g>
  </g>
</svg>
